<?xml version="1.0" ?><!DOCTYPE svg  PUBLIC '-//W3C//DTD SVG 1.1//EN'  'http://www.w3.org/Graphics/SVG/1.1/DTD/svg11.dtd'><svg height="512px" style="enable-background:new 0 0 512 512;" version="1.1" viewBox="0 0 512 512" width="512px" xml:space="preserve" xmlns="http://www.w3.org/2000/svg" xmlns:xlink="http://www.w3.org/1999/xlink"><g id="_x35_72_x2C__Bomb_x2C__boom_x2C__danger_x2C__ddos_x2C__explosion"><g><path d="M321.443,305.172l36.168,20.87c1.232,0.703,1.966,2.14,1.73,3.663    c-3.959,25.239-13.894,45.025-28.051,60.883c-14.102,15.77-32.334,27.583-53.058,36.991c-1.319,0.616-2.958,0.353-4.043-0.732    c-1.379-1.437-1.348-3.693,0.057-5.1c13.221-13.016,24.886-27.524,32.596-45.61c7.711-18.086,11.579-39.894,9.234-67.564    c-0.06-0.703,0.087-1.436,0.47-2.111C317.544,304.761,319.74,304.175,321.443,305.172 M351.867,331.025l-28.168-16.269    c1.32,25.795-2.727,46.606-10.23,64.194c-5.306,12.428-12.343,23.215-20.4,32.976c12.543-7.299,23.683-15.828,32.888-26.117    C338.766,371.447,347.88,353.625,351.867,331.025z M258.595,63.902c0.997-1.699,3.197-2.287,4.896-1.318    c1.73,0.996,2.316,3.195,1.319,4.895l-16.27,28.228c-3.664,6.479-4.394,13.894-2.58,20.636c1.79,6.713,6.128,12.751,12.518,16.533    l0.499,0.293c6.446,3.635,13.834,4.338,20.548,2.549c6.802-1.816,12.897-6.213,16.677-12.75l14.513-25.121l0.027-0.088    l28.375-49.098l0.176-0.293l1.904-3.313c0.411-0.703,0.998-1.231,1.699-1.524c3.664-3.928,8.324-6.624,13.34-7.973    c6.977-1.876,14.684-1.085,21.397,2.784l0.147,0.088c6.654,3.898,11.107,10.143,12.985,17.061    c1.847,6.976,1.085,14.686-2.786,21.398l-35.264,62.581l22.365,12.927l-7.209,12.457l-52.267-30.162l7.212-12.458l23.654,13.66    l35.295-62.611c2.871-4.954,3.43-10.728,2.021-15.917c-1.379-5.158-4.66-9.818-9.557-12.691l-0.203-0.117    c-4.983-2.873-10.729-3.43-15.919-2.052c-5.1,1.378-9.7,4.631-12.603,9.438l-0.119,0.234l-28.402,49.186l-0.061,0.088l0,0    l-14.508,25.121c-4.749,8.236-12.487,13.807-21.047,16.092c-8.472,2.258-17.821,1.349-26.029-3.282l-0.235-0.146    c-8.265-4.749-13.807-12.487-16.091-21.046c-2.285-8.561-1.348-18.027,3.429-26.265L258.595,63.902z M275.304,32.655    c0.969-1.699,3.165-2.286,4.896-1.318c1.698,0.997,2.284,3.194,1.319,4.895l-5.629,9.761c-0.997,1.701-3.193,2.287-4.896,1.32    c-1.728-0.997-2.316-3.195-1.32-4.896L275.304,32.655z M256.749,29.607c0-1.994,1.61-3.605,3.604-3.605    c1.994,0,3.608,1.611,3.608,3.605v11.256c0,1.993-1.614,3.605-3.608,3.605c-1.993,0-3.604-1.612-3.604-3.605V29.607z     M239.191,36.231c-0.997-1.7-0.411-3.897,1.319-4.895c1.699-0.968,3.899-0.381,4.896,1.318l5.625,9.762    c0.969,1.7,0.383,3.898-1.316,4.896c-1.73,0.967-3.931,0.381-4.896-1.32L239.191,36.231z M227.262,50.771    c-1.702-0.997-2.289-3.194-1.292-4.896c0.997-1.729,3.197-2.315,4.896-1.318l9.76,5.628c1.702,0.997,2.289,3.195,1.292,4.895    c-0.968,1.729-3.197,2.316-4.896,1.319L227.262,50.771z M224.24,69.325c-1.99,0-3.604-1.612-3.604-3.604    c0-1.994,1.614-3.606,3.604-3.606h11.259c1.993,0,3.604,1.612,3.604,3.606c0,1.992-1.611,3.604-3.604,3.604H224.24z     M281.519,95.208c0.997,1.7,0.411,3.899-1.319,4.896c-1.702,0.996-3.899,0.41-4.896-1.319l-5.63-9.731    c-0.996-1.73-0.407-3.929,1.292-4.924c1.73-0.969,3.927-0.383,4.924,1.318L281.519,95.208z M293.419,80.669    c1.73,0.997,2.316,3.195,1.32,4.896c-0.997,1.729-3.197,2.315-4.928,1.318l-9.729-5.628c-1.729-0.995-2.316-3.194-1.319-4.896    c0.997-1.729,3.193-2.314,4.924-1.318L293.419,80.669z M296.466,62.114c1.993,0,3.607,1.612,3.607,3.606    c0,1.992-1.614,3.604-3.607,3.604h-11.255c-1.993,0-3.604-1.612-3.604-3.604c0-1.994,1.611-3.606,3.604-3.606H296.466z     M289.812,44.557c1.73-0.997,3.931-0.41,4.928,1.318c0.996,1.701,0.41,3.898-1.32,4.896l-9.731,5.628    c-1.73,0.997-3.927,0.41-4.924-1.319c-0.997-1.699-0.41-3.897,1.319-4.895L289.812,44.557z M115.141,485.999    c-1.994,0-3.604-1.612-3.604-3.605s1.611-3.605,3.604-3.605h216.764c1.994,0,3.608,1.612,3.608,3.605s-1.614,3.605-3.608,3.605    H115.141z M242.065,472.809c-1.965,0-3.607-1.612-3.607-3.605c0-1.964,1.642-3.605,3.607-3.605h150.017    c1.994,0,3.608,1.642,3.608,3.605c0,1.993-1.614,3.605-3.608,3.605H242.065z M407.443,472.809c-1.993,0-3.604-1.612-3.604-3.605    c0-1.964,1.61-3.605,3.604-3.605h18.762c1.962,0,3.604,1.642,3.604,3.605c0,1.993-1.643,3.605-3.604,3.605H407.443z     M106.612,473.219c-1.993,0-3.604-1.611-3.604-3.605c0-1.993,1.611-3.605,3.604-3.605h71.054c1.993,0,3.604,1.612,3.604,3.605    c0,1.994-1.611,3.605-3.604,3.605H106.612z M186.282,160.984c1.906-0.557,3.899,0.527,4.457,2.434    c0.586,1.875-0.499,3.898-2.404,4.455c-16.677,5.012-32.449,13.131-46.283,24.124c-13.339,10.552-24.974,23.802-34.032,39.454    c-8.268,14.363-13.718,29.547-16.474,44.936c-2.874,15.975-2.842,32.186-0.175,47.896c0.323,1.964-0.969,3.811-2.934,4.133    c-1.961,0.352-3.808-0.967-4.162-2.931c-2.811-16.474-2.811-33.533,0.207-50.358c2.902-16.21,8.616-32.215,17.323-47.252    c9.497-16.443,21.721-30.367,35.79-41.506C152.194,174.791,168.783,166.262,186.282,160.984z M288.376,176.227    c-30.336-8.881-62.346-6.918-90.78,4.484c-27.788,11.14-52.204,31.336-68.386,59.241l-0.231,0.41    c-19.113,33.182-22.984,70.965-13.778,105.261c9.174,34.295,31.424,65.073,64.515,84.272l0.499,0.293    c33.154,19.054,70.938,22.893,105.204,13.718c34.352-9.203,65.189-31.54,84.39-64.75l0.087-0.147    c16.092-27.993,21.371-59.269,17.148-88.933c-4.369-30.367-18.671-59.064-41.566-80.902c-1.26-1.201-1.464-3.077-0.586-4.484    l19.406-33.592l-52.267-30.191l-19.46,33.68C291.718,176.08,289.931,176.726,288.376,176.227z" style="fill-rule:evenodd;clip-rule:evenodd;"/></g></g><g id="Layer_1"/></svg>